<?xml version="1.0" encoding="UTF-8" standalone="no"?>
<!-- Created with Inkscape (http://www.inkscape.org/) -->

<svg
   xmlns:dc="http://purl.org/dc/elements/1.1/"
   xmlns:cc="http://creativecommons.org/ns#"
   xmlns:rdf="http://www.w3.org/1999/02/22-rdf-syntax-ns#"
   xmlns:svg="http://www.w3.org/2000/svg"
   xmlns="http://www.w3.org/2000/svg"
   xmlns:sodipodi="http://sodipodi.sourceforge.net/DTD/sodipodi-0.dtd"
   xmlns:inkscape="http://www.inkscape.org/namespaces/inkscape"
   width="210mm"
   height="297mm"
   viewBox="0 0 210 297"
   version="1.1"
   id="svg8"
   inkscape:version="0.92.4 (unknown)"
   sodipodi:docname="drawing-1.svg"
   inkscape:export-filename="/mnt/0890ce70-3387-4496-a36e-fe2ed1d8596f/research/code/label-propagation-for-active-learning/data/debug/synthetic/im2-mask-2.png"
   inkscape:export-xdpi="96"
   inkscape:export-ydpi="96">
  <defs
     id="defs2">
    <inkscape:perspective
       sodipodi:type="inkscape:persp3d"
       inkscape:vp_x="-8.4605064 : 147.9853 : 1"
       inkscape:vp_y="0 : 1000 : 0"
       inkscape:vp_z="201.53949 : 147.9853 : 1"
       inkscape:persp3d-origin="96.539494 : 98.485297 : 1"
       id="perspective4715" />
  </defs>
  <sodipodi:namedview
     id="base"
     pagecolor="#ffffff"
     bordercolor="#666666"
     borderopacity="1.0"
     inkscape:pageopacity="0.0"
     inkscape:pageshadow="2"
     inkscape:zoom="1.979899"
     inkscape:cx="208.9658"
     inkscape:cy="1052.0591"
     inkscape:document-units="mm"
     inkscape:current-layer="layer16"
     showgrid="false"
     inkscape:window-width="1872"
     inkscape:window-height="1016"
     inkscape:window-x="48"
     inkscape:window-y="27"
     inkscape:window-maximized="1" />
  <metadata
     id="metadata5">
    <rdf:RDF>
      <cc:Work
         rdf:about="">
        <dc:format>image/svg+xml</dc:format>
        <dc:type
           rdf:resource="http://purl.org/dc/dcmitype/StillImage" />
        <dc:title></dc:title>
      </cc:Work>
    </rdf:RDF>
  </metadata>
  <g
     inkscape:label="Layer 1"
     inkscape:groupmode="layer"
     id="layer1"
     style="display:none"
     sodipodi:insensitive="true">
    <g
       inkscape:groupmode="layer"
       id="layer2"
       inkscape:label="img"
       style="display:none">
      <rect
         y="19.03969"
         x="94.880684"
         height="31.537804"
         width="52.117558"
         id="rect858"
         style="display:inline;opacity:1;fill:#008000;fill-opacity:1;fill-rule:nonzero;stroke:none;stroke-width:0.565;stroke-linejoin:round;stroke-miterlimit:4;stroke-dasharray:none;stroke-dashoffset:0;stroke-opacity:1;paint-order:markers fill stroke" />
      <circle
         r="8.2853556"
         cy="34.274055"
         cx="112.78773"
         id="circle860"
         style="display:inline;opacity:1;fill:#0000ff;fill-opacity:1;fill-rule:nonzero;stroke:none;stroke-width:0.31845453;stroke-linejoin:round;stroke-miterlimit:4;stroke-dasharray:none;stroke-dashoffset:0;stroke-opacity:1;paint-order:markers fill stroke" />
    </g>
    <g
       inkscape:groupmode="layer"
       id="layer3"
       inkscape:label="mask"
       style="display:none">
      <rect
         style="display:inline;opacity:1;fill:#000000;fill-opacity:1;fill-rule:nonzero;stroke:none;stroke-width:0.565;stroke-linejoin:round;stroke-miterlimit:4;stroke-dasharray:none;stroke-dashoffset:0;stroke-opacity:1;paint-order:markers fill stroke"
         id="rect815"
         width="52.117558"
         height="31.537804"
         x="18.174328"
         y="15.832457" />
      <circle
         style="display:inline;opacity:1;fill:#ffffff;fill-opacity:1;fill-rule:nonzero;stroke:none;stroke-width:0.31845453;stroke-linejoin:round;stroke-miterlimit:4;stroke-dasharray:none;stroke-dashoffset:0;stroke-opacity:1;paint-order:markers fill stroke"
         id="path817"
         cx="36.081383"
         cy="31.06682"
         r="8.2853556" />
    </g>
  </g>
  <g
     inkscape:groupmode="layer"
     id="layer5"
     inkscape:label="Layer 2"
     style="display:none"
     sodipodi:insensitive="true">
    <g
       inkscape:groupmode="layer"
       id="layer6"
       inkscape:label="mask 1"
       style="display:inline">
      <rect
         y="11.288877"
         x="10.690782"
         height="31.537804"
         width="52.117558"
         id="rect858-6"
         style="display:inline;opacity:1;fill:#000000;fill-opacity:1;fill-rule:nonzero;stroke:none;stroke-width:0.56500006;stroke-linejoin:round;stroke-miterlimit:4;stroke-dasharray:none;stroke-dashoffset:0;stroke-opacity:1;paint-order:markers fill stroke" />
      <path
         style="fill:#000000;fill-opacity:1;stroke:#ffffff;stroke-width:1.26499999;stroke-linecap:butt;stroke-linejoin:miter;stroke-miterlimit:4;stroke-dasharray:none;stroke-opacity:1"
         d="m 29.600099,20.977394 c 0.267269,0.133636 -0.920815,-4.526399 6.882191,-0.400905 9.017281,4.767488 27.543951,-11.1752564 6.949009,8.151723 -5.149455,4.83242 -3.741775,6.815373 -11.292139,5.612659 -7.550364,-1.202714 -17.973875,0.400904 -13.229841,-3.608139 4.744035,-4.009043 8.753078,-5.078121 11.024867,-4.209494 2.271792,0.868624 5.813113,3.674956 6.214018,1.135896 0.400904,-2.539061 1.135894,-2.204974 1.135894,-2.204974"
         id="path899"
         inkscape:connector-curvature="0"
         sodipodi:nodetypes="csssscsc" />
    </g>
    <g
       inkscape:groupmode="layer"
       id="layer7"
       inkscape:label="image1"
       style="display:none">
      <path
         style="opacity:1;fill:#ffffff;fill-opacity:1;fill-rule:nonzero;stroke:none;stroke-width:0.56499994;stroke-linejoin:round;stroke-miterlimit:4;stroke-dasharray:none;stroke-dashoffset:0;stroke-opacity:1;paint-order:markers fill stroke"
         id="path893"
         d="m 91.73337,21.608882 c 0.382317,-0.06249 0.770075,-0.07502 1.155914,-0.100815 0.690975,-0.03281 1.381268,-0.0785 2.072563,-0.104751 0.916271,-0.02286 1.832978,-0.02946 2.749426,-0.01595 0.895122,0.0016 1.787618,0.04658 2.680347,0.106304 0.57629,0.04208 1.14773,0.140123 1.71114,0.266221 0.50277,0.120838 0.99861,0.26783 1.49208,0.421688 0.46935,0.125166 0.91995,0.304374 1.36823,0.488712 0.22023,0.08929 0.42036,0.218247 0.62019,0.345064 0.20941,0.121798 0.3805,0.286512 0.53564,0.470506 0.17359,0.189936 0.33609,0.390337 0.50628,0.583914 0.22638,0.250605 0.36904,0.558819 0.52694,0.853977 0.23509,0.460357 0.42887,0.939417 0.61759,1.420093 0.10355,0.264739 0.16555,0.538985 0.16726,0.823024 -0.0206,0.300624 -0.041,0.601001 -0.051,0.902234 0.003,0.330642 -0.0436,0.656124 -0.105,0.979842 -0.0593,0.223742 -0.10433,0.453342 -0.19298,0.668173 -0.0487,0.118147 -0.0926,0.192966 -0.15281,0.305073 -0.19791,0.358002 -0.49955,0.626832 -0.82485,0.865595 -0.61823,0.404789 -1.25456,0.794774 -1.93069,1.095716 -0.2478,0.110294 -0.47847,0.19122 -0.73285,0.285658 -0.70903,0.268607 -1.44334,0.445092 -2.19331,0.546764 -0.56975,0.0662 -1.14384,0.06949 -1.71658,0.07372 -0.510659,-0.0085 -1.019649,-0.05571 -1.521182,-0.151767 -0.355023,-0.07606 -0.705993,-0.165619 -1.038773,-0.312489 -0.03039,-0.01799 -0.06079,-0.03599 -0.09118,-0.05399 0,0 0.825011,-0.535315 0.825011,-0.535315 v 0 c 0.02735,0.01564 0.05471,0.03128 0.08206,0.04691 0.322731,0.142864 0.660871,0.237612 1.006843,0.306821 0.498584,0.08796 1.002381,0.138359 1.509191,0.138428 0.56644,-7.94e-4 1.13432,-0.0076 1.69746,-0.07524 0.7428,-0.104441 1.469,-0.285276 2.17018,-0.55531 0.29006,-0.111056 0.45217,-0.167449 0.73282,-0.296957 0.11095,-0.0512 0.42378,-0.239327 0.32827,-0.163111 -0.15302,0.122121 -0.33726,0.199025 -0.50329,0.302787 -0.16201,0.101253 0.63013,-0.364969 0.48736,-0.301628 0.32246,-0.223734 0.62313,-0.479078 0.82738,-0.820044 0.0483,-0.08502 0.118,-0.203515 0.15873,-0.292629 0.095,-0.207963 0.13802,-0.433705 0.19991,-0.652468 0.0596,-0.319376 0.11768,-0.639437 0.11095,-0.966174 0.01,-0.299286 0.0217,-0.598519 0.0454,-0.897083 0.008,-0.27323 -0.0483,-0.540594 -0.13665,-0.798737 -0.17112,-0.483164 -0.36019,-0.960046 -0.60796,-1.409954 -0.15883,-0.287065 -0.31158,-0.580903 -0.53342,-0.825667 -0.1681,-0.195305 -0.33036,-0.395901 -0.50354,-0.586391 -0.1528,-0.175167 -0.32438,-0.325352 -0.52676,-0.441676 -0.19412,-0.122672 -0.3858,-0.251146 -0.59852,-0.340379 -0.4384,-0.193506 -0.88423,-0.368684 -1.34893,-0.489839 -0.49238,-0.151328 -0.98777,-0.2941 -1.48872,-0.414337 -0.55636,-0.12033 -1.11827,-0.220361 -1.686065,-0.267312 -0.884558,-0.07008 -1.769716,-0.111392 -2.657298,-0.116133 -0.922234,-0.01072 -1.844834,0.0026 -2.766581,0.0346 -0.696201,0.03036 -1.391857,0.07208 -2.087118,0.119057 -0.395481,0.03024 -0.79261,0.05179 -1.182894,0.127204 0,0 0.793774,-0.591929 0.793774,-0.591929 z"
         inkscape:connector-curvature="0" />
      <rect
         style="display:inline;opacity:1;fill:#800000;fill-opacity:1;fill-rule:nonzero;stroke:none;stroke-width:0.56500006;stroke-linejoin:round;stroke-miterlimit:4;stroke-dasharray:none;stroke-dashoffset:0;stroke-opacity:1;paint-order:markers fill stroke"
         id="rect901"
         width="52.117558"
         height="31.537804"
         x="67.485558"
         y="11.288877" />
      <path
         sodipodi:nodetypes="csssscsc"
         inkscape:connector-curvature="0"
         id="path903"
         d="m 86.394873,20.977394 c 0.267269,0.133636 -0.920815,-4.526399 6.882191,-0.400905 9.017286,4.767488 27.543956,-11.1752568 6.949006,8.151723 -5.149452,4.83242 -3.741772,6.815373 -11.292136,5.612659 -7.550364,-1.202714 -17.973875,0.400904 -13.229841,-3.608139 4.744035,-4.009043 8.753078,-5.078121 11.024867,-4.209494 2.271792,0.868624 5.813113,3.674956 6.214018,1.135896 0.400904,-2.539061 1.135894,-2.204974 1.135894,-2.204974"
         style="fill:#800000;fill-opacity:1;stroke:#0000ff;stroke-width:1.26499999;stroke-linecap:butt;stroke-linejoin:miter;stroke-miterlimit:4;stroke-dasharray:none;stroke-opacity:1" />
    </g>
    <g
       inkscape:groupmode="layer"
       id="layer8"
       inkscape:label="image2"
       style="display:none">
      <path
         inkscape:connector-curvature="0"
         d="m 35.606769,97.914332 c 0.382317,-0.06249 0.770075,-0.07502 1.155914,-0.100815 0.690975,-0.03281 1.381268,-0.0785 2.072563,-0.104751 0.916271,-0.02286 1.832978,-0.02946 2.749426,-0.01595 0.895122,0.0016 1.787618,0.04658 2.680351,0.106304 0.576281,0.04208 1.147725,0.140123 1.711134,0.266221 0.502767,0.120838 0.998612,0.26783 1.492086,0.421688 0.469345,0.125166 0.919949,0.304374 1.368224,0.488712 0.220234,0.08929 0.42036,0.218247 0.620189,0.345064 0.209415,0.121798 0.380502,0.286512 0.535641,0.470506 0.17359,0.189936 0.336095,0.390339 0.506285,0.583919 0.226378,0.2506 0.369041,0.55881 0.526939,0.85397 0.235088,0.46036 0.428866,0.93942 0.617588,1.4201 0.10355,0.26473 0.165547,0.53898 0.167256,0.82302 -0.02061,0.30062 -0.04105,0.601 -0.05097,0.90223 0.0034,0.33065 -0.04362,0.65613 -0.104992,0.97985 -0.05925,0.22374 -0.104331,0.45334 -0.192982,0.66817 -0.04875,0.11815 -0.09258,0.19296 -0.152816,0.30507 -0.197903,0.358 -0.499551,0.62683 -0.824849,0.8656 -0.61823,0.40479 -1.254556,0.79477 -1.930683,1.09571 -0.247801,0.1103 -0.478472,0.19122 -0.732851,0.28566 -0.709038,0.26861 -1.443344,0.44509 -2.193316,0.54676 -0.569746,0.0662 -1.143834,0.0695 -1.71658,0.0737 -0.510656,-0.008 -1.019646,-0.0557 -1.521179,-0.15176 -0.355023,-0.0761 -0.705993,-0.16562 -1.038773,-0.31249 -0.03039,-0.018 -0.06079,-0.036 -0.09118,-0.054 0,0 0.825011,-0.53532 0.825011,-0.53532 v 0 c 0.02735,0.0156 0.05471,0.0313 0.08206,0.0469 0.322731,0.14287 0.660871,0.23762 1.006843,0.30682 0.498584,0.088 1.002385,0.13836 1.509189,0.13843 0.566441,-7.9e-4 1.134321,-0.008 1.697463,-0.0752 0.742799,-0.10444 1.468999,-0.28527 2.170179,-0.55531 0.290057,-0.11105 0.452168,-0.16745 0.732822,-0.29695 0.110945,-0.0512 0.423775,-0.23933 0.328271,-0.16312 -0.153027,0.12213 -0.337267,0.19903 -0.503293,0.30279 -0.162015,0.10125 0.630131,-0.36497 0.487362,-0.30163 0.322453,-0.22373 0.623123,-0.47907 0.827381,-0.82004 0.04827,-0.085 0.117999,-0.20352 0.158727,-0.29263 0.09504,-0.20796 0.138017,-0.4337 0.199913,-0.65247 0.05962,-0.31937 0.117677,-0.63943 0.110943,-0.96617 0.0097,-0.29929 0.02167,-0.59852 0.04538,-0.89708 0.0083,-0.27323 -0.04833,-0.5406 -0.136644,-0.79874 -0.171122,-0.48317 -0.360191,-0.96005 -0.607963,-1.40996 -0.158826,-0.28706 -0.311584,-0.5809 -0.533416,-0.82566 -0.1681,-0.19531 -0.330366,-0.3959 -0.503547,-0.58639 -0.152796,-0.17517 -0.324373,-0.325356 -0.526756,-0.44168 C 48.435,99.730738 48.24332,99.602264 48.030595,99.513031 47.592199,99.319525 47.14637,99.144347 46.681667,99.023192 46.18929,98.871864 45.6939,98.729092 45.192944,98.608855 c -0.556353,-0.12033 -1.118267,-0.220361 -1.68606,-0.267312 -0.884558,-0.07008 -1.769716,-0.111392 -2.657298,-0.116133 -0.922234,-0.01072 -1.844834,0.0026 -2.766581,0.0346 -0.696201,0.03036 -1.391857,0.07208 -2.087118,0.119057 -0.395481,0.03024 -0.79261,0.05179 -1.182894,0.127204 0,0 0.793774,-0.591929 0.793774,-0.591929 z"
         id="path905"
         style="opacity:1;fill:#ffffff;fill-opacity:1;fill-rule:nonzero;stroke:none;stroke-width:0.56499994;stroke-linejoin:round;stroke-miterlimit:4;stroke-dasharray:none;stroke-dashoffset:0;stroke-opacity:1;paint-order:markers fill stroke" />
      <rect
         y="87.59433"
         x="11.358956"
         height="31.537804"
         width="52.117558"
         id="rect907"
         style="display:inline;opacity:1;fill:#800000;fill-opacity:1;fill-rule:nonzero;stroke:none;stroke-width:0.56500006;stroke-linejoin:round;stroke-miterlimit:4;stroke-dasharray:none;stroke-dashoffset:0;stroke-opacity:1;paint-order:markers fill stroke" />
      <path
         sodipodi:type="star"
         style="opacity:1;fill:#800000;fill-opacity:1;fill-rule:nonzero;stroke:#0000ff;stroke-width:1.26499999;stroke-linejoin:round;stroke-miterlimit:4;stroke-dasharray:none;stroke-dashoffset:0;stroke-opacity:1;paint-order:markers fill stroke"
         id="path918"
         sodipodi:sides="5"
         sodipodi:cx="25.524237"
         sodipodi:cy="97.349663"
         sodipodi:r1="6.2366071"
         sodipodi:r2="3.1183035"
         sodipodi:arg1="0.78539816"
         sodipodi:arg2="1.4137167"
         inkscape:flatsided="false"
         inkscape:rounded="0"
         inkscape:randomized="0"
         d="m 29.934184,101.75961 -3.922137,-1.33004 -3.319171,2.47695 0.05293,-4.141177 -3.381395,-2.3913 3.95485,-1.229354 1.229353,-3.95485 2.391301,3.381395 4.141177,-0.05293 -2.476945,3.319171 z"
         inkscape:transform-center-x="0.30148362"
         inkscape:transform-center-y="-0.30148448" />
      <path
         inkscape:transform-center-y="-0.52095321"
         inkscape:transform-center-x="0.52095173"
         d="m 55.321423,112.9115 -6.777297,-2.29825 -5.735395,4.28006 0.09146,-7.15579 -5.842917,-4.13207 6.833825,-2.12428 2.124274,-6.83382 4.132072,5.84292 7.15579,-0.0915 -4.280064,5.7354 z"
         inkscape:randomized="0"
         inkscape:rounded="0"
         inkscape:flatsided="false"
         sodipodi:arg2="1.4137167"
         sodipodi:arg1="0.78539816"
         sodipodi:r2="5.3883047"
         sodipodi:r1="10.776609"
         sodipodi:cy="105.29128"
         sodipodi:cx="47.70121"
         sodipodi:sides="5"
         id="path920"
         style="opacity:1;fill:#800000;fill-opacity:1;fill-rule:nonzero;stroke:#0000ff;stroke-width:2.18586969;stroke-linejoin:round;stroke-miterlimit:4;stroke-dasharray:none;stroke-dashoffset:0;stroke-opacity:1;paint-order:markers fill stroke"
         sodipodi:type="star" />
    </g>
    <g
       inkscape:groupmode="layer"
       id="layer10"
       inkscape:label="mask2"
       style="display:none">
      <path
         style="display:inline;opacity:1;fill:#ffffff;fill-opacity:1;fill-rule:nonzero;stroke:none;stroke-width:0.56499994;stroke-linejoin:round;stroke-miterlimit:4;stroke-dasharray:none;stroke-dashoffset:0;stroke-opacity:1;paint-order:markers fill stroke"
         id="path946"
         d="m 91.065196,98.448871 c 0.382317,-0.06249 0.770075,-0.07502 1.155914,-0.100815 0.690975,-0.03281 1.381268,-0.0785 2.072563,-0.104751 0.916271,-0.02286 1.832978,-0.02946 2.749426,-0.01595 0.895122,0.0016 1.787618,0.04658 2.680351,0.106304 0.57628,0.04208 1.14773,0.140123 1.71113,0.266221 0.50277,0.120838 0.99862,0.26783 1.49209,0.421688 0.46935,0.125166 0.91995,0.304374 1.36822,0.488712 0.22024,0.08929 0.42036,0.218247 0.62019,0.345064 0.20942,0.121798 0.38051,0.286516 0.53564,0.470506 0.17359,0.18994 0.3361,0.39034 0.50629,0.58392 0.22638,0.2506 0.36904,0.55881 0.52694,0.85397 0.23509,0.46036 0.42886,0.93942 0.61759,1.4201 0.10355,0.26473 0.16554,0.53898 0.16725,0.82302 -0.0206,0.30062 -0.041,0.601 -0.051,0.90223 0.003,0.33065 -0.0436,0.65613 -0.10499,0.97985 -0.0593,0.22374 -0.10433,0.45334 -0.19298,0.66817 -0.0487,0.11815 -0.0926,0.19296 -0.15282,0.30507 -0.1979,0.358 -0.49955,0.62683 -0.82485,0.8656 -0.61823,0.40479 -1.25455,0.79477 -1.93068,1.09571 -0.2478,0.1103 -0.47847,0.19122 -0.73285,0.28566 -0.70904,0.26861 -1.44334,0.44509 -2.19332,0.54676 -0.56974,0.0662 -1.143831,0.0695 -1.716577,0.0737 -0.510656,-0.008 -1.019646,-0.0557 -1.521179,-0.15176 -0.355023,-0.0761 -0.705993,-0.16562 -1.038773,-0.31249 -0.03039,-0.018 -0.06079,-0.036 -0.09118,-0.054 0,0 0.825011,-0.53532 0.825011,-0.53532 v 0 c 0.02735,0.0156 0.05471,0.0313 0.08206,0.0469 0.322731,0.14287 0.660871,0.23762 1.006843,0.30682 0.498584,0.088 1.002385,0.13836 1.509185,0.13843 0.56645,-7.9e-4 1.13433,-0.008 1.69747,-0.0752 0.7428,-0.10444 1.469,-0.28527 2.17018,-0.55531 0.29005,-0.11105 0.45216,-0.16745 0.73282,-0.29695 0.11094,-0.0512 0.42377,-0.23933 0.32827,-0.16312 -0.15303,0.12213 -0.33727,0.19903 -0.50329,0.30279 -0.16202,0.10125 0.63013,-0.36497 0.48736,-0.30163 0.32245,-0.22373 0.62312,-0.47907 0.82738,-0.82004 0.0483,-0.085 0.118,-0.20352 0.15873,-0.29263 0.095,-0.20796 0.13801,-0.4337 0.19991,-0.65247 0.0596,-0.31937 0.11768,-0.63943 0.11094,-0.96617 0.01,-0.29929 0.0217,-0.59852 0.0454,-0.89708 0.008,-0.27323 -0.0483,-0.5406 -0.13664,-0.79874 -0.17112,-0.48317 -0.36019,-0.96005 -0.60796,-1.40996 -0.15883,-0.28706 -0.31159,-0.5809 -0.53342,-0.82566 -0.1681,-0.19531 -0.33037,-0.3959 -0.50355,-0.58639 -0.15279,-0.17517 -0.32437,-0.32536 -0.52675,-0.44168 -0.19412,-0.12267 -0.3858,-0.25115 -0.59853,-0.34038 -0.43839,-0.193506 -0.88422,-0.368684 -1.34893,-0.489839 -0.49237,-0.151328 -0.98776,-0.2941 -1.48872,-0.414337 -0.55635,-0.12033 -1.118266,-0.220361 -1.686059,-0.267312 -0.884558,-0.07008 -1.769716,-0.111392 -2.657298,-0.116133 -0.922234,-0.01072 -1.844834,0.0026 -2.766581,0.0346 -0.696201,0.03036 -1.391857,0.07208 -2.087118,0.119057 -0.395481,0.03024 -0.79261,0.05179 -1.182894,0.127204 0,0 0.793774,-0.591929 0.793774,-0.591929 z"
         inkscape:connector-curvature="0" />
      <rect
         style="display:inline;opacity:1;fill:#000000;fill-opacity:1;fill-rule:nonzero;stroke:none;stroke-width:0.56500006;stroke-linejoin:round;stroke-miterlimit:4;stroke-dasharray:none;stroke-dashoffset:0;stroke-opacity:1;paint-order:markers fill stroke"
         id="rect948"
         width="52.117558"
         height="31.537804"
         x="66.817383"
         y="88.128868" />
      <path
         inkscape:transform-center-y="-0.30148448"
         inkscape:transform-center-x="0.30148362"
         d="m 85.392613,102.29415 -3.922137,-1.33004 -3.31917,2.47695 0.05293,-4.141179 -3.381395,-2.3913 3.95485,-1.229354 1.229354,-3.95485 2.3913,3.381395 4.141178,-0.05293 -2.476946,3.31917 z"
         inkscape:randomized="0"
         inkscape:rounded="0"
         inkscape:flatsided="false"
         sodipodi:arg2="1.4137167"
         sodipodi:arg1="0.78539816"
         sodipodi:r2="3.1183035"
         sodipodi:r1="6.2366071"
         sodipodi:cy="97.884201"
         sodipodi:cx="80.982666"
         sodipodi:sides="5"
         id="path950"
         style="display:inline;opacity:1;fill:#000000;fill-opacity:1;fill-rule:nonzero;stroke:#ffffff;stroke-width:1.26499999;stroke-linejoin:round;stroke-miterlimit:4;stroke-dasharray:none;stroke-dashoffset:0;stroke-opacity:1;paint-order:markers fill stroke"
         sodipodi:type="star" />
      <path
         sodipodi:type="star"
         style="display:inline;opacity:1;fill:#000000;fill-opacity:1;fill-rule:nonzero;stroke:#ffffff;stroke-width:2.18586969;stroke-linejoin:round;stroke-miterlimit:4;stroke-dasharray:none;stroke-dashoffset:0;stroke-opacity:1;paint-order:markers fill stroke"
         id="path952"
         sodipodi:sides="5"
         sodipodi:cx="103.15964"
         sodipodi:cy="105.82582"
         sodipodi:r1="10.776609"
         sodipodi:r2="5.3883047"
         sodipodi:arg1="0.78539816"
         sodipodi:arg2="1.4137167"
         inkscape:flatsided="false"
         inkscape:rounded="0"
         inkscape:randomized="0"
         d="m 110.77985,113.44603 -6.7773,-2.29824 -5.735391,4.28006 0.09146,-7.15579 -5.842917,-4.13207 6.833825,-2.12428 2.124269,-6.833821 4.13208,5.842921 7.15579,-0.0915 -4.28007,5.7354 z"
         inkscape:transform-center-x="0.52095173"
         inkscape:transform-center-y="-0.52095321" />
    </g>
    <g
       inkscape:groupmode="layer"
       id="layer9"
       inkscape:label="image3"
       style="display:none">
      <path
         style="opacity:1;fill:#ffffff;fill-opacity:1;fill-rule:nonzero;stroke:none;stroke-width:0.56499994;stroke-linejoin:round;stroke-miterlimit:4;stroke-dasharray:none;stroke-dashoffset:0;stroke-opacity:1;paint-order:markers fill stroke"
         id="path923"
         d="m 38.145829,148.42828 c 0.382317,-0.0625 0.770075,-0.075 1.155914,-0.10082 0.690975,-0.0328 1.381268,-0.0785 2.072563,-0.10475 0.916271,-0.0229 1.832978,-0.0295 2.749426,-0.0159 0.895122,0.002 1.787618,0.0466 2.680351,0.1063 0.576281,0.0421 1.147725,0.14013 1.711134,0.26622 0.502767,0.12084 0.998612,0.26783 1.492086,0.42169 0.469345,0.12517 0.919949,0.30438 1.368224,0.48871 0.220234,0.0893 0.42036,0.21825 0.620189,0.34507 0.209415,0.1218 0.380502,0.28651 0.535641,0.4705 0.17359,0.18994 0.336095,0.39034 0.506285,0.58392 0.226378,0.2506 0.369041,0.55881 0.526939,0.85397 0.235088,0.46036 0.428866,0.93942 0.617588,1.4201 0.10355,0.26473 0.165547,0.53898 0.167256,0.82302 -0.02061,0.30062 -0.04105,0.601 -0.05097,0.90223 0.0034,0.33065 -0.04362,0.65613 -0.104992,0.97985 -0.05925,0.22374 -0.104331,0.45334 -0.192982,0.66817 -0.04875,0.11815 -0.09258,0.19296 -0.152816,0.30507 -0.197903,0.358 -0.499551,0.62683 -0.824849,0.8656 -0.61823,0.40479 -1.254556,0.79477 -1.930683,1.09571 -0.247801,0.1103 -0.478472,0.19122 -0.732851,0.28566 -0.709038,0.26861 -1.443344,0.44509 -2.193316,0.54676 -0.569746,0.0662 -1.143834,0.0695 -1.71658,0.0737 -0.510656,-0.008 -1.019646,-0.0557 -1.521179,-0.15176 -0.355023,-0.0761 -0.705993,-0.16562 -1.038773,-0.31249 -0.03039,-0.018 -0.06079,-0.036 -0.09118,-0.054 0,0 0.825011,-0.53532 0.825011,-0.53532 v 0 c 0.02735,0.0156 0.05471,0.0313 0.08206,0.0469 0.322731,0.14287 0.660871,0.23762 1.006843,0.30682 0.498584,0.088 1.002385,0.13836 1.509189,0.13843 0.566441,-7.9e-4 1.134321,-0.008 1.697463,-0.0752 0.742799,-0.10444 1.468999,-0.28527 2.170179,-0.55531 0.290057,-0.11105 0.452168,-0.16745 0.732822,-0.29695 0.110945,-0.0512 0.423775,-0.23933 0.328271,-0.16312 -0.153027,0.12213 -0.337267,0.19903 -0.503293,0.30279 -0.162015,0.10125 0.630131,-0.36497 0.487362,-0.30163 0.322453,-0.22373 0.623123,-0.47907 0.827381,-0.82004 0.04827,-0.085 0.117999,-0.20352 0.158727,-0.29263 0.09504,-0.20796 0.138017,-0.4337 0.199913,-0.65247 0.05962,-0.31937 0.117677,-0.63943 0.110943,-0.96617 0.0097,-0.29929 0.02167,-0.59852 0.04538,-0.89708 0.0083,-0.27323 -0.04833,-0.5406 -0.136644,-0.79874 -0.171122,-0.48317 -0.360191,-0.96005 -0.607963,-1.40996 -0.158826,-0.28706 -0.311584,-0.5809 -0.533416,-0.82566 -0.1681,-0.19531 -0.330366,-0.3959 -0.503547,-0.58639 -0.152796,-0.17517 -0.324373,-0.32535 -0.526756,-0.44168 -0.194119,-0.12267 -0.385799,-0.25114 -0.598524,-0.34038 -0.438396,-0.1935 -0.884225,-0.36868 -1.348928,-0.48983 -0.492377,-0.15133 -0.987767,-0.2941 -1.488723,-0.41434 -0.556353,-0.12033 -1.118267,-0.22036 -1.68606,-0.26731 -0.884558,-0.0701 -1.769716,-0.1114 -2.657298,-0.11614 -0.922234,-0.0107 -1.844834,0.003 -2.766581,0.0346 -0.696201,0.0304 -1.391857,0.0721 -2.087118,0.11906 -0.395481,0.0302 -0.79261,0.0518 -1.182894,0.1272 0,0 0.793774,-0.59192 0.793774,-0.59192 z"
         inkscape:connector-curvature="0" />
      <rect
         style="display:inline;opacity:1;fill:#800000;fill-opacity:1;fill-rule:nonzero;stroke:none;stroke-width:0.56500006;stroke-linejoin:round;stroke-miterlimit:4;stroke-dasharray:none;stroke-dashoffset:0;stroke-opacity:1;paint-order:markers fill stroke"
         id="rect925"
         width="52.117558"
         height="31.537804"
         x="13.898017"
         y="138.10826" />
      <circle
         style="opacity:1;fill:#800000;fill-opacity:1;fill-rule:nonzero;stroke:#0000ff;stroke-width:1.26499999;stroke-linejoin:round;stroke-miterlimit:4;stroke-dasharray:none;stroke-dashoffset:0;stroke-opacity:1;paint-order:markers fill stroke"
         id="path935"
         cx="26.994221"
         cy="152.4072"
         r="7.8844509" />
      <path
         style="fill:#0000ff;stroke:#0000ff;stroke-width:0.26458332px;stroke-linecap:butt;stroke-linejoin:miter;stroke-opacity:1"
         d="m 39.55589,143.32002 c 0.935443,0.13364 21.381561,21.38156 21.381561,21.38156"
         id="path937"
         inkscape:connector-curvature="0" />
    </g>
    <g
       inkscape:groupmode="layer"
       id="layer11"
       inkscape:label="mask3"
       style="display:none">
      <path
         inkscape:connector-curvature="0"
         d="m 95.876047,148.82919 c 0.382317,-0.0625 0.770075,-0.075 1.155914,-0.10082 0.690975,-0.0328 1.381268,-0.0785 2.072566,-0.10475 0.916273,-0.0229 1.832983,-0.0295 2.749423,-0.0159 0.89513,0.002 1.78762,0.0466 2.68035,0.1063 0.57629,0.0421 1.14773,0.14013 1.71114,0.26622 0.50277,0.12084 0.99861,0.26783 1.49208,0.42169 0.46935,0.12517 0.91995,0.30438 1.36823,0.48871 0.22023,0.0893 0.42036,0.21825 0.62019,0.34507 0.20941,0.1218 0.3805,0.28651 0.53564,0.4705 0.17359,0.18994 0.33609,0.39034 0.50628,0.58392 0.22638,0.2506 0.36904,0.55881 0.52694,0.85397 0.23509,0.46036 0.42887,0.93942 0.61759,1.4201 0.10355,0.26473 0.16555,0.53898 0.16726,0.82302 -0.0206,0.30062 -0.041,0.601 -0.051,0.90223 0.003,0.33065 -0.0436,0.65613 -0.105,0.97985 -0.0593,0.22374 -0.10433,0.45334 -0.19298,0.66817 -0.0487,0.11815 -0.0926,0.19296 -0.15281,0.30507 -0.19791,0.358 -0.49955,0.62683 -0.82485,0.8656 -0.61823,0.40479 -1.25456,0.79477 -1.93069,1.09571 -0.2478,0.1103 -0.47847,0.19122 -0.73285,0.28566 -0.70903,0.26861 -1.44334,0.44509 -2.19331,0.54676 -0.56975,0.0662 -1.14384,0.0695 -1.71658,0.0737 -0.51066,-0.008 -1.01965,-0.0557 -1.52118,-0.15176 -0.35502,-0.0761 -0.70599,-0.16562 -1.03877,-0.31249 -0.0304,-0.018 -0.0608,-0.036 -0.0912,-0.054 0,0 0.82501,-0.53532 0.82501,-0.53532 v 0 c 0.0274,0.0156 0.0547,0.0313 0.0821,0.0469 0.32273,0.14287 0.66087,0.23762 1.00684,0.30682 0.49858,0.088 1.00238,0.13836 1.50919,0.13843 0.56644,-7.9e-4 1.13432,-0.008 1.69746,-0.0752 0.7428,-0.10444 1.469,-0.28527 2.17018,-0.55531 0.29006,-0.11105 0.45217,-0.16745 0.73282,-0.29695 0.11095,-0.0512 0.42378,-0.23933 0.32827,-0.16312 -0.15302,0.12213 -0.33726,0.19903 -0.50329,0.30279 -0.16201,0.10125 0.63013,-0.36497 0.48736,-0.30163 0.32246,-0.22373 0.62313,-0.47907 0.82738,-0.82004 0.0483,-0.085 0.118,-0.20352 0.15873,-0.29263 0.095,-0.20796 0.13802,-0.4337 0.19991,-0.65247 0.0596,-0.31937 0.11768,-0.63943 0.11095,-0.96617 0.01,-0.29929 0.0217,-0.59852 0.0454,-0.89708 0.008,-0.27323 -0.0483,-0.5406 -0.13665,-0.79874 -0.17112,-0.48317 -0.36019,-0.96005 -0.60796,-1.40996 -0.15883,-0.28706 -0.31158,-0.5809 -0.53342,-0.82566 -0.1681,-0.19531 -0.33036,-0.3959 -0.50354,-0.58639 -0.1528,-0.17517 -0.32438,-0.32535 -0.52676,-0.44168 -0.19412,-0.12267 -0.3858,-0.25114 -0.59852,-0.34038 -0.4384,-0.1935 -0.88423,-0.36868 -1.34893,-0.48983 -0.49238,-0.15133 -0.98777,-0.2941 -1.48872,-0.41434 -0.55636,-0.12033 -1.11827,-0.22036 -1.68606,-0.26731 -0.88456,-0.0701 -1.76972,-0.1114 -2.6573,-0.11614 -0.92224,-0.0107 -1.844843,0.003 -2.766587,0.0346 -0.696201,0.0304 -1.391857,0.0721 -2.087118,0.11906 -0.395481,0.0302 -0.79261,0.0518 -1.182894,0.1272 0,0 0.793774,-0.59192 0.793774,-0.59192 z"
         id="path954"
         style="display:inline;opacity:1;fill:#ffffff;fill-opacity:1;fill-rule:nonzero;stroke:none;stroke-width:0.56499994;stroke-linejoin:round;stroke-miterlimit:4;stroke-dasharray:none;stroke-dashoffset:0;stroke-opacity:1;paint-order:markers fill stroke" />
      <rect
         y="138.50916"
         x="71.628235"
         height="31.537804"
         width="52.117558"
         id="rect956"
         style="display:inline;opacity:1;fill:#000000;fill-opacity:1;fill-rule:nonzero;stroke:none;stroke-width:0.56500006;stroke-linejoin:round;stroke-miterlimit:4;stroke-dasharray:none;stroke-dashoffset:0;stroke-opacity:1;paint-order:markers fill stroke" />
      <circle
         r="7.8844509"
         cy="152.80809"
         cx="84.724442"
         id="circle958"
         style="display:inline;opacity:1;fill:#000000;fill-opacity:1;fill-rule:nonzero;stroke:#ffffff;stroke-width:1.26499999;stroke-linejoin:round;stroke-miterlimit:4;stroke-dasharray:none;stroke-dashoffset:0;stroke-opacity:1;paint-order:markers fill stroke" />
      <path
         inkscape:connector-curvature="0"
         id="path960"
         d="m 97.286108,143.72093 c 0.935443,0.13364 21.381562,21.38156 21.381562,21.38156"
         style="display:inline;fill:#0000ff;stroke:#ffffff;stroke-width:0.26458332px;stroke-linecap:butt;stroke-linejoin:miter;stroke-opacity:1" />
    </g>
    <g
       inkscape:groupmode="layer"
       id="layer13"
       inkscape:label="mask4"
       style="display:none">
      <path
         style="display:inline;opacity:1;fill:#ffffff;fill-opacity:1;fill-rule:nonzero;stroke:none;stroke-width:0.56499994;stroke-linejoin:round;stroke-miterlimit:4;stroke-dasharray:none;stroke-dashoffset:0;stroke-opacity:1;paint-order:markers fill stroke"
         id="path4705"
         d="m 96.945125,188.11781 c 0.382317,-0.0625 0.770075,-0.075 1.155914,-0.10082 0.690975,-0.0328 1.381268,-0.0785 2.072571,-0.10475 0.91627,-0.0229 1.83298,-0.0295 2.74942,-0.0159 0.89513,0.002 1.78762,0.0466 2.68035,0.1063 0.57629,0.0421 1.14773,0.14013 1.71114,0.26622 0.50277,0.12084 0.99861,0.26783 1.49208,0.42169 0.46935,0.12517 0.91995,0.30438 1.36823,0.48871 0.22023,0.0893 0.42036,0.21825 0.62019,0.34507 0.20941,0.1218 0.3805,0.28651 0.53564,0.4705 0.17359,0.18994 0.33609,0.39034 0.50628,0.58392 0.22638,0.2506 0.36904,0.55881 0.52694,0.85397 0.23509,0.46036 0.42887,0.93942 0.61759,1.4201 0.10355,0.26473 0.16555,0.53898 0.16726,0.82302 -0.0206,0.30062 -0.041,0.601 -0.051,0.90223 0.003,0.33065 -0.0436,0.65613 -0.105,0.97985 -0.0593,0.22374 -0.10433,0.45334 -0.19298,0.66817 -0.0487,0.11815 -0.0926,0.19296 -0.15281,0.30507 -0.19791,0.358 -0.49955,0.62683 -0.82485,0.8656 -0.61823,0.40479 -1.25456,0.79477 -1.93069,1.09571 -0.2478,0.1103 -0.47847,0.19122 -0.73285,0.28566 -0.70903,0.26861 -1.44334,0.44509 -2.19331,0.54676 -0.56975,0.0662 -1.14384,0.0695 -1.71658,0.0737 -0.51066,-0.008 -1.01965,-0.0557 -1.52118,-0.15176 -0.35502,-0.0761 -0.70599,-0.16562 -1.03877,-0.31249 -0.0304,-0.018 -0.0608,-0.036 -0.0912,-0.054 0,0 0.82501,-0.53532 0.82501,-0.53532 v 0 c 0.0274,0.0156 0.0547,0.0313 0.0821,0.0469 0.32273,0.14287 0.66087,0.23762 1.00684,0.30682 0.49858,0.088 1.00238,0.13836 1.50919,0.13843 0.56644,-7.9e-4 1.13432,-0.008 1.69746,-0.0752 0.7428,-0.10444 1.469,-0.28527 2.17018,-0.55531 0.29006,-0.11105 0.45217,-0.16745 0.73282,-0.29695 0.11095,-0.0512 0.42378,-0.23933 0.32827,-0.16312 -0.15302,0.12213 -0.33726,0.19903 -0.50329,0.30279 -0.16201,0.10125 0.63013,-0.36497 0.48736,-0.30163 0.32246,-0.22373 0.62313,-0.47907 0.82738,-0.82004 0.0483,-0.085 0.118,-0.20352 0.15873,-0.29263 0.095,-0.20796 0.13802,-0.4337 0.19991,-0.65247 0.0596,-0.31937 0.11768,-0.63943 0.11095,-0.96617 0.01,-0.29929 0.0217,-0.59852 0.0454,-0.89708 0.008,-0.27323 -0.0483,-0.5406 -0.13665,-0.79874 -0.17112,-0.48317 -0.36019,-0.96005 -0.60796,-1.40996 -0.15883,-0.28706 -0.31158,-0.5809 -0.53342,-0.82566 -0.1681,-0.19531 -0.33036,-0.3959 -0.50354,-0.58639 -0.1528,-0.17517 -0.32438,-0.32535 -0.52676,-0.44168 -0.19412,-0.12267 -0.3858,-0.25114 -0.59852,-0.34038 -0.4384,-0.1935 -0.88423,-0.36868 -1.34893,-0.48983 -0.49238,-0.15133 -0.98777,-0.2941 -1.48872,-0.41434 -0.55636,-0.12033 -1.11827,-0.22036 -1.68606,-0.26731 -0.88456,-0.0701 -1.76972,-0.1114 -2.6573,-0.11614 -0.92224,-0.0107 -1.84484,0.003 -2.766589,0.0346 -0.696201,0.0304 -1.391857,0.0721 -2.087118,0.11906 -0.395481,0.0302 -0.79261,0.0518 -1.182894,0.1272 0,0 0.793774,-0.59192 0.793774,-0.59192 z"
         inkscape:connector-curvature="0" />
      <rect
         style="display:inline;opacity:1;fill:#000000;fill-opacity:1;fill-rule:nonzero;stroke:none;stroke-width:0.56500006;stroke-linejoin:round;stroke-miterlimit:4;stroke-dasharray:none;stroke-dashoffset:0;stroke-opacity:1;paint-order:markers fill stroke"
         id="rect4707"
         width="52.117558"
         height="31.537804"
         x="72.697311"
         y="177.79778" />
      <circle
         style="display:inline;opacity:1;fill:#000000;fill-opacity:1;fill-rule:nonzero;stroke:#ffffff;stroke-width:1.26499999;stroke-linejoin:round;stroke-miterlimit:4;stroke-dasharray:none;stroke-dashoffset:0;stroke-opacity:1;paint-order:markers fill stroke"
         id="circle4709"
         cx="85.793518"
         cy="192.09671"
         r="7.8844509" />
      <path
         style="display:inline;fill:#ffffff;stroke:#ffffff;stroke-width:0.26458332px;stroke-linecap:butt;stroke-linejoin:miter;stroke-opacity:1"
         d="m 98.355186,183.00955 c 0.935443,0.13364 21.381564,21.38156 21.381564,21.38156"
         id="path4711"
         inkscape:connector-curvature="0" />
    </g>
    <g
       inkscape:groupmode="layer"
       id="layer14"
       inkscape:label="image4"
       style="display:none">
      <path
         inkscape:connector-curvature="0"
         d="m 39.214907,187.7169 c 0.382317,-0.0625 0.770075,-0.075 1.155914,-0.10082 0.690975,-0.0328 1.381268,-0.0785 2.072563,-0.10475 0.916271,-0.0229 1.832978,-0.0295 2.749426,-0.0159 0.895122,0.002 1.787618,0.0466 2.680351,0.1063 0.576281,0.0421 1.147725,0.14013 1.711134,0.26622 0.502767,0.12084 0.998612,0.26783 1.492086,0.42169 0.469345,0.12517 0.919949,0.30438 1.368224,0.48871 0.220234,0.0893 0.42036,0.21825 0.620189,0.34507 0.209415,0.1218 0.380502,0.28651 0.535641,0.4705 0.17359,0.18994 0.336095,0.39034 0.506285,0.58392 0.226378,0.2506 0.369041,0.55881 0.526939,0.85397 0.235088,0.46036 0.428866,0.93942 0.617588,1.4201 0.10355,0.26473 0.165547,0.53898 0.167256,0.82302 -0.02061,0.30062 -0.04105,0.601 -0.05097,0.90223 0.0034,0.33065 -0.04362,0.65613 -0.104992,0.97985 -0.05925,0.22374 -0.104331,0.45334 -0.192982,0.66817 -0.04875,0.11815 -0.09258,0.19296 -0.152816,0.30507 -0.197903,0.358 -0.499551,0.62683 -0.824849,0.8656 -0.61823,0.40479 -1.254556,0.79477 -1.930683,1.09571 -0.247801,0.1103 -0.478472,0.19122 -0.732851,0.28566 -0.709038,0.26861 -1.443344,0.44509 -2.193316,0.54676 -0.569746,0.0662 -1.143834,0.0695 -1.71658,0.0737 -0.510656,-0.008 -1.019646,-0.0557 -1.521179,-0.15176 -0.355023,-0.0761 -0.705993,-0.16562 -1.038773,-0.31249 -0.03039,-0.018 -0.06079,-0.036 -0.09118,-0.054 0,0 0.825011,-0.53532 0.825011,-0.53532 v 0 c 0.02735,0.0156 0.05471,0.0313 0.08206,0.0469 0.322731,0.14287 0.660871,0.23762 1.006843,0.30682 0.498584,0.088 1.002385,0.13836 1.509189,0.13843 0.566441,-7.9e-4 1.134321,-0.008 1.697463,-0.0752 0.742799,-0.10444 1.468999,-0.28527 2.170179,-0.55531 0.290057,-0.11105 0.452168,-0.16745 0.732822,-0.29695 0.110945,-0.0512 0.423775,-0.23933 0.328271,-0.16312 -0.153027,0.12213 -0.337267,0.19903 -0.503293,0.30279 -0.162015,0.10125 0.630131,-0.36497 0.487362,-0.30163 0.322453,-0.22373 0.623123,-0.47907 0.827381,-0.82004 0.04827,-0.085 0.117999,-0.20352 0.158727,-0.29263 0.09504,-0.20796 0.138017,-0.4337 0.199913,-0.65247 0.05962,-0.31937 0.117677,-0.63943 0.110943,-0.96617 0.0097,-0.29929 0.02167,-0.59852 0.04538,-0.89708 0.0083,-0.27323 -0.04833,-0.5406 -0.136644,-0.79874 -0.171122,-0.48317 -0.360191,-0.96005 -0.607963,-1.40996 -0.158826,-0.28706 -0.311584,-0.5809 -0.533416,-0.82566 -0.1681,-0.19531 -0.330366,-0.3959 -0.503547,-0.58639 -0.152796,-0.17517 -0.324373,-0.32535 -0.526756,-0.44168 -0.194119,-0.12267 -0.385799,-0.25114 -0.598524,-0.34038 -0.438396,-0.1935 -0.884225,-0.36868 -1.348928,-0.48983 -0.492377,-0.15133 -0.987767,-0.2941 -1.488723,-0.41434 -0.556353,-0.12033 -1.118267,-0.22036 -1.68606,-0.26731 -0.884558,-0.0701 -1.769716,-0.1114 -2.657298,-0.11614 -0.922234,-0.0107 -1.844834,0.003 -2.766581,0.0346 -0.696201,0.0304 -1.391857,0.0721 -2.087118,0.11906 -0.395481,0.0302 -0.79261,0.0518 -1.182894,0.1272 0,0 0.793774,-0.59192 0.793774,-0.59192 z"
         id="path4697"
         style="display:inline;opacity:1;fill:#ffffff;fill-opacity:1;fill-rule:nonzero;stroke:none;stroke-width:0.56499994;stroke-linejoin:round;stroke-miterlimit:4;stroke-dasharray:none;stroke-dashoffset:0;stroke-opacity:1;paint-order:markers fill stroke" />
      <rect
         y="177.39688"
         x="14.967095"
         height="31.537804"
         width="52.117558"
         id="rect4699"
         style="display:inline;opacity:1;fill:#800000;fill-opacity:1;fill-rule:nonzero;stroke:none;stroke-width:0.56500006;stroke-linejoin:round;stroke-miterlimit:4;stroke-dasharray:none;stroke-dashoffset:0;stroke-opacity:1;paint-order:markers fill stroke" />
      <circle
         r="7.8844509"
         cy="191.69582"
         cx="28.063299"
         id="circle4701"
         style="display:inline;opacity:1;fill:#800000;fill-opacity:1;fill-rule:nonzero;stroke:#0000ff;stroke-width:1.26499999;stroke-linejoin:round;stroke-miterlimit:4;stroke-dasharray:none;stroke-dashoffset:0;stroke-opacity:1;paint-order:markers fill stroke" />
      <path
         inkscape:connector-curvature="0"
         id="path4703"
         d="m 40.624968,182.60864 c 0.935443,0.13364 21.381561,21.38156 21.381561,21.38156"
         style="display:inline;fill:#0000ff;stroke:#0000ff;stroke-width:0.26458332px;stroke-linecap:butt;stroke-linejoin:miter;stroke-opacity:1" />
      <rect
         style="display:inline;opacity:1;fill:#00ff00;fill-opacity:1;fill-rule:nonzero;stroke:#ffffff;stroke-width:1.26499999;stroke-linejoin:round;stroke-miterlimit:4;stroke-dasharray:none;stroke-dashoffset:0;stroke-opacity:1;paint-order:markers fill stroke"
         id="rect4731"
         width="12.828938"
         height="9.0871639"
         x="39.956795"
         y="197.17484" />
      <path
         sodipodi:type="star"
         style="display:inline;opacity:1;fill:#ff0000;fill-opacity:1;fill-rule:nonzero;stroke:#ffffff;stroke-width:1.26499999;stroke-linejoin:round;stroke-miterlimit:4;stroke-dasharray:none;stroke-dashoffset:0;stroke-opacity:1;paint-order:markers fill stroke"
         id="path4733"
         sodipodi:sides="5"
         sodipodi:cx="53.320271"
         sodipodi:cy="183.67772"
         sodipodi:r1="5.6142507"
         sodipodi:r2="2.8071253"
         sodipodi:arg1="-0.023805026"
         sodipodi:arg2="0.6045135"
         inkscape:flatsided="false"
         inkscape:rounded="0"
         inkscape:randomized="0"
         d="m 58.932931,183.54408 -3.303018,1.7291 -0.448141,3.7012 -2.665158,-2.60703 -3.658532,0.71752 1.655859,-3.34033 -1.812956,-3.25775 3.688535,0.5426 2.538064,-2.73092 0.623781,3.67567 z"
         inkscape:transform-center-x="-0.4966864"
         inkscape:transform-center-y="-0.041297727" />
    </g>
  </g>
  <g
     inkscape:groupmode="layer"
     id="layer12"
     inkscape:label="Layer 3"
     style="display:none"
     sodipodi:insensitive="true">
    <rect
       style="display:inline;opacity:1;fill:#000000;fill-opacity:1;fill-rule:nonzero;stroke:none;stroke-width:0.56500006;stroke-linejoin:round;stroke-miterlimit:4;stroke-dasharray:none;stroke-dashoffset:0;stroke-opacity:1;paint-order:markers fill stroke"
       id="rect948-7"
       width="52.117558"
       height="31.537804"
       x="17.030506"
       y="16.269789" />
  </g>
  <g
     inkscape:groupmode="layer"
     id="layer15"
     inkscape:label="Layer 4">
    <g
       inkscape:groupmode="layer"
       id="layer16"
       inkscape:label="img1" />
    <g
       inkscape:groupmode="layer"
       id="layer17"
       inkscape:label="mask1" />
  </g>
</svg>
